<?xml version="1.0" encoding="utf-8"?>
<!-- Generator: Adobe Illustrator 23.0.1, SVG Export Plug-In . SVG Version: 6.00 Build 0)  -->
<svg version="1.1" id="Layer_1" xmlns="http://www.w3.org/2000/svg" xmlns:xlink="http://www.w3.org/1999/xlink" x="0px" y="0px"
	 viewBox="0 0 439 439" style="enable-background:new 0 0 439 439;" xml:space="preserve">
<style type="text/css">
	.st0{fill:url(#Logo_Artte_dos_Pés_1_);}
</style>
<linearGradient id="Logo_Artte_dos_Pés_1_" gradientUnits="userSpaceOnUse" x1="39.5975" y1="345.402" x2="399.2836" y2="93.5471">
	<stop  offset="0" style="stop-color:#4FAC89"/>
	<stop  offset="0" style="stop-color:#5AAF89"/>
	<stop  offset="1" style="stop-color:#3D7480"/>
</linearGradient>
<path id="Logo_Artte_dos_Pés_3_" class="st0" d="M219.44-0.05C98.2-0.05-0.09,98.23-0.09,219.48C-0.09,340.72,98.2,439,219.44,439
	c121.24,0,219.53-98.28,219.53-219.52C438.97,98.23,340.68-0.05,219.44-0.05z M342.34,120.09c3.82,0.54,6.83,6.21,5.31,12.39
	c-1.98,8.04-5.45,10.89-8.5,10.47c-2.73-0.39-5.75-5.32-5.3-12.4C334.24,124.19,338.54,119.57,342.34,120.09z M309.97,119.48
	c0.5-7.65,5.68-13.22,10.26-12.57c4.61,0.65,8.23,7.49,6.39,14.95c-2.41,9.66-6.59,13.09-10.28,12.56
	C313.05,133.95,309.43,128,309.97,119.48z M294.49,92.24c5.28,0.41,9.87,8.48,8.25,17.74c-2.11,12.02-6.64,16.6-10.9,16.26
	c-3.79-0.28-8.32-7.27-8.22-17.74C283.66,99.08,289.2,91.83,294.49,92.24z M265.03,82.3c6.35,0.33,12.15,9.51,10.52,20.25
	c-2.12,13.95-7.44,19.33-12.53,19.07c-4.59-0.24-10.25-8.17-10.53-20.25C252.25,90.5,258.66,81.99,265.03,82.3z M228.09,66.85
	c9.56,0.41,16.83,12.22,16.21,26.35c-0.61,14.14-8.93,25.87-18.44,24.85c-7.44-0.8-17.1-9.32-16.22-26.35
	C210.36,77.56,218.51,66.44,228.09,66.85z M331.06,274.08c-8.94,28.41-21.76,48.26-30.43,58.08c-6.29,7.8-15.97,12.74-26.78,12.51
	c-18.48-0.4-33.14-15.71-32.74-34.18c0.17-7.69,2.92-14.7,7.41-20.25c0.22-0.32,0.44-0.65,0.68-0.97
	c15.06-19.52,14.57-48.16,5.43-67.42c-8.29-17.56-41.45-60.45-46.78-70.56c-0.1-0.2-0.21-0.41-0.31-0.62
	c-0.04-0.11-0.1-0.21-0.13-0.31c-1.05-2.29-1.63-4.83-1.57-7.51c0.16-7.92,5.68-14.46,13.02-16.27c0.3-0.1,0.64-0.17,0.97-0.23
	c0.03-0.01,0.05-0.02,0.08-0.02c1.03-0.2,2.17-0.31,3.46-0.28c20.1,0.58,71.94,12.24,87.06,15.28c28.38,5.69,33.79,12.51,37.3,22.35
	C352.2,176.19,345.59,227.91,331.06,274.08z"/>
</svg>
